<?xml version="1.0" encoding="utf-8"?>
<!-- Generator: Adobe Illustrator 16.0.0, SVG Export Plug-In . SVG Version: 6.00 Build 0)  -->
<!DOCTYPE svg PUBLIC "-//W3C//DTD SVG 1.1//EN" "http://www.w3.org/Graphics/SVG/1.1/DTD/svg11.dtd">
<svg version="1.1" id="Layer_1" xmlns="http://www.w3.org/2000/svg" xmlns:xlink="http://www.w3.org/1999/xlink" x="0px" y="0px"
	 width="846.019px" height="95.412px" viewBox="0 0 846.019 95.412" enable-background="new 0 0 846.019 95.412"
	 xml:space="preserve">
<g>
	<path d="M0,93.812V5.545h13.263c5.907,0,10.613,0.457,14.12,1.372c3.544,0.915,6.536,2.458,8.976,4.631
		c2.477,2.249,4.439,5.05,5.888,8.403c1.486,3.393,2.229,6.823,2.229,10.291c0,6.327-2.421,11.682-7.26,16.064
		c4.688,1.601,8.384,4.402,11.09,8.403c2.744,3.964,4.116,8.575,4.116,13.834c0,6.898-2.439,12.729-7.317,17.493
		c-2.936,2.936-6.231,4.974-9.89,6.117c-4.002,1.105-9.014,1.658-15.035,1.658H0z M13.32,43.447h4.173
		c4.954,0,8.584-1.095,10.89-3.287c2.306-2.191,3.458-5.421,3.458-9.69c0-4.154-1.182-7.308-3.544-9.461
		c-2.363-2.152-5.793-3.23-10.29-3.23H13.32V43.447z M13.32,81.292h8.232c6.021,0,10.442-1.181,13.263-3.544
		c2.973-2.553,4.459-5.792,4.459-9.718c0-3.811-1.429-7.012-4.288-9.604c-2.783-2.553-7.756-3.83-14.921-3.83H13.32V81.292z"/>
	<path d="M119.765,72.374H81.978l-9.833,21.438H57.796L101.472,0l42.132,93.812h-14.578L119.765,72.374z M114.334,59.854
		l-13.091-30.013l-13.72,30.013H114.334z"/>
	<path d="M174.074,18.065v75.747h-13.32V18.065H140.46V5.545h53.852v12.52H174.074z"/>
	<path d="M230.556,18.065v75.747h-13.32V18.065h-20.294V5.545h53.852v12.52H230.556z"/>
	<path d="M276.003,5.545v75.747h25.954v12.52h-39.274V5.545H276.003z"/>
	<path d="M363.298,18.065h-35.387v21.209h34.357v12.52h-34.357v29.499h35.387v12.52h-48.707V5.545h48.707V18.065z"/>
	<path d="M446.02,10.29v15.778c-7.699-6.44-15.664-9.661-23.896-9.661c-9.071,0-16.712,3.258-22.924,9.775
		c-6.251,6.479-9.375,14.406-9.375,23.782c0,9.261,3.125,17.074,9.375,23.438c6.25,6.365,13.91,9.547,22.981,9.547
		c4.688,0,8.669-0.762,11.949-2.287c1.828-0.762,3.725-1.791,5.688-3.087c1.963-1.295,4.031-2.858,6.203-4.688v16.064
		c-7.623,4.307-15.627,6.46-24.011,6.46c-12.615,0-23.381-4.402-32.299-13.206c-8.881-8.88-13.32-19.589-13.32-32.128
		c0-11.242,3.716-21.266,11.148-30.07c9.146-10.785,20.98-16.178,35.501-16.178C430.965,3.83,438.625,5.984,446.02,10.29z"/>
	<path d="M516.792,72.374h-37.788l-9.832,21.438h-14.35L498.498,0l42.133,93.812h-14.578L516.792,72.374z M511.361,59.854
		L498.27,29.841l-13.72,30.013H511.361z"/>
	<path d="M581.563,56.195l27.326,37.616h-16.293l-25.211-36.13h-2.401v36.13h-13.319V5.545h15.606
		c11.662,0,20.085,2.192,25.268,6.574c5.717,4.879,8.575,11.319,8.575,19.322c0,6.251-1.792,11.625-5.373,16.121
		C592.158,52.061,587.432,54.938,581.563,56.195z M564.984,46.077h4.23c12.614,0,18.923-4.821,18.923-14.463
		c0-9.032-6.137-13.548-18.408-13.548h-4.745V46.077z"/>
	<path d="M622.152,93.812V5.545h18.522c8.879,0,15.892,0.877,21.037,2.629c5.525,1.715,10.537,4.631,15.035,8.747
		c9.108,8.309,13.663,19.228,13.663,32.757c0,13.568-4.745,24.544-14.235,32.929c-4.764,4.193-9.757,7.108-14.978,8.747
		c-4.879,1.639-11.796,2.458-20.752,2.458H622.152z M635.472,81.292h6.003c5.983,0,10.956-0.629,14.921-1.887
		c3.963-1.333,7.546-3.449,10.747-6.346c6.555-5.983,9.833-13.777,9.833-23.381c0-9.68-3.24-17.531-9.719-23.553
		c-5.831-5.374-14.426-8.061-25.782-8.061h-6.003V81.292z"/>
	<path d="M757.067,18.694l-10.805,6.402c-2.021-3.506-3.945-5.792-5.774-6.86c-1.906-1.219-4.364-1.829-7.374-1.829
		c-3.697,0-6.766,1.048-9.204,3.144c-2.439,2.058-3.659,4.65-3.659,7.775c0,4.307,3.201,7.774,9.604,10.404l8.804,3.602
		c7.165,2.896,12.405,6.431,15.721,10.604c3.316,4.173,4.974,9.29,4.974,15.35c0,8.118-2.706,14.826-8.117,20.123
		c-5.451,5.336-12.216,8.003-20.295,8.003c-7.66,0-13.987-2.267-18.979-6.803c-4.916-4.535-7.984-10.919-9.204-19.151l13.492-2.973
		c0.608,5.184,1.676,8.767,3.201,10.748c2.744,3.812,6.745,5.717,12.005,5.717c4.153,0,7.604-1.391,10.348-4.173
		c2.743-2.781,4.115-6.307,4.115-10.576c0-1.715-0.238-3.287-0.714-4.716c-0.478-1.429-1.221-2.744-2.229-3.945
		c-1.011-1.2-2.315-2.324-3.916-3.373c-1.601-1.048-3.507-2.048-5.717-3.001l-8.519-3.544c-12.081-5.106-18.122-12.577-18.122-22.41
		c0-6.631,2.534-12.176,7.604-16.636c5.068-4.497,11.377-6.746,18.923-6.746C743.404,3.83,751.351,8.785,757.067,18.694z"/>
	<path d="M832.698,18.008h-15.264l7.317-12.462h21.267v88.266h-13.32V18.008z"/>
</g>
</svg>
